<svg xmlns="http://www.w3.org/2000/svg" xmlns:xlink="http://www.w3.org/1999/xlink" width="235" zoomAndPan="magnify" viewBox="0 0 176.25 40.499999" height="54" preserveAspectRatio="xMidYMid meet" version="1.0"><defs><g/><clipPath id="35ec56c003"><path d="M 3.296875 1.222656 L 41 1.222656 L 41 39 L 3.296875 39 Z M 3.296875 1.222656 " clip-rule="nonzero"/></clipPath></defs><g fill="#ffffff" fill-opacity="1"><g transform="translate(28.59099, 29.219637)"><g><path d="M 7.484375 -19.296875 C 8.628906 -19.296875 9.253906 -19.035156 9.359375 -18.515625 L 11.0625 -10.8125 L 12.796875 -0.546875 C 12.828125 -0.378906 12.84375 -0.222656 12.84375 -0.078125 C 12.84375 0.0546875 12.800781 0.171875 12.71875 0.265625 C 12.632812 0.359375 12.351562 0.40625 11.875 0.40625 C 10.382812 0.40625 9.585938 0.0859375 9.484375 -0.546875 L 8.609375 -5.71875 L 5.09375 -5.71875 L 4.3125 -0.53125 C 4.257812 -0.175781 4.195312 0.0546875 4.125 0.171875 C 4.050781 0.285156 3.945312 0.351562 3.8125 0.375 C 3.675781 0.394531 3.457031 0.40625 3.15625 0.40625 L 2.453125 0.40625 C 1.867188 0.40625 1.503906 0.367188 1.359375 0.296875 C 0.984375 0.160156 0.773438 0.0078125 0.734375 -0.15625 C 0.710938 -0.238281 0.703125 -0.3125 0.703125 -0.375 C 0.703125 -0.445312 0.875 -1.550781 1.21875 -3.6875 C 1.570312 -5.832031 2.003906 -8.382812 2.515625 -11.34375 C 3.023438 -14.300781 3.359375 -16.238281 3.515625 -17.15625 C 3.679688 -18.082031 3.773438 -18.601562 3.796875 -18.71875 C 3.859375 -19.101562 5.085938 -19.296875 7.484375 -19.296875 Z M 6.71875 -16.015625 L 5.578125 -8.75 L 8.0625 -8.75 Z M 6.71875 -16.015625 "/></g></g></g><g fill="#ffffff" fill-opacity="1"><g transform="translate(42.670175, 29.219637)"><g><path d="M 2.328125 -10.4375 L 0.328125 -10.4375 C 0.128906 -10.4375 0.0195312 -10.484375 0 -10.578125 C -0.03125 -10.671875 -0.046875 -10.773438 -0.046875 -10.890625 C -0.046875 -11.609375 0.078125 -11.992188 0.328125 -12.046875 L 2.328125 -12.453125 L 3.734375 -15.28125 C 3.941406 -15.53125 4.328125 -15.65625 4.890625 -15.65625 C 5.046875 -15.65625 5.1875 -15.351562 5.3125 -14.75 C 5.445312 -14.15625 5.59375 -13.390625 5.75 -12.453125 L 8.15625 -12.453125 C 8.425781 -12.453125 8.5625 -12.113281 8.5625 -11.4375 C 8.5625 -10.769531 8.425781 -10.4375 8.15625 -10.4375 L 5.71875 -10.4375 L 5.71875 -2.453125 L 6.125 0.375 L 6.125 0.40625 C 6.132812 0.5 6.132812 0.566406 6.125 0.609375 C 6.039062 0.734375 5.625 0.796875 4.875 0.796875 C 4.113281 0.796875 3.660156 0.644531 3.515625 0.34375 L 2.328125 -2.03125 Z M 2.328125 -10.4375 "/></g></g></g><g fill="#ffffff" fill-opacity="1"><g transform="translate(51.679889, 29.219637)"><g><path d="M 2.328125 -10.4375 L 0.328125 -10.4375 C 0.128906 -10.4375 0.0195312 -10.484375 0 -10.578125 C -0.03125 -10.671875 -0.046875 -10.773438 -0.046875 -10.890625 C -0.046875 -11.609375 0.078125 -11.992188 0.328125 -12.046875 L 2.328125 -12.453125 L 3.734375 -15.28125 C 3.941406 -15.53125 4.328125 -15.65625 4.890625 -15.65625 C 5.046875 -15.65625 5.1875 -15.351562 5.3125 -14.75 C 5.445312 -14.15625 5.59375 -13.390625 5.75 -12.453125 L 8.15625 -12.453125 C 8.425781 -12.453125 8.5625 -12.113281 8.5625 -11.4375 C 8.5625 -10.769531 8.425781 -10.4375 8.15625 -10.4375 L 5.71875 -10.4375 L 5.71875 -2.453125 L 6.125 0.375 L 6.125 0.40625 C 6.132812 0.5 6.132812 0.566406 6.125 0.609375 C 6.039062 0.734375 5.625 0.796875 4.875 0.796875 C 4.113281 0.796875 3.660156 0.644531 3.515625 0.34375 L 2.328125 -2.03125 Z M 2.328125 -10.4375 "/></g></g></g><g fill="#ffffff" fill-opacity="1"><g transform="translate(60.689601, 29.219637)"><g><path d="M 1.171875 0 L 1.171875 -12.453125 C 1.171875 -12.710938 1.472656 -12.84375 2.078125 -12.84375 C 2.679688 -12.84375 3.25 -12.800781 3.78125 -12.71875 C 4.320312 -12.632812 4.59375 -12.546875 4.59375 -12.453125 L 4.59375 0 C 4.59375 0.101562 4.582031 0.171875 4.5625 0.203125 C 4.476562 0.335938 4.160156 0.40625 3.609375 0.40625 C 3.054688 0.40625 2.507812 0.363281 1.96875 0.28125 C 1.4375 0.195312 1.171875 0.101562 1.171875 0 Z M 2.734375 -15.65625 C 1.523438 -15.65625 0.921875 -16.253906 0.921875 -17.453125 C 0.921875 -18.660156 1.523438 -19.265625 2.734375 -19.265625 C 3.941406 -19.265625 4.546875 -18.660156 4.546875 -17.453125 C 4.546875 -16.253906 3.941406 -15.65625 2.734375 -15.65625 Z M 2.734375 -15.65625 "/></g></g></g><g fill="#ffffff" fill-opacity="1"><g transform="translate(66.938705, 29.219637)"><g><path d="M 9.3125 -12 C 9.425781 -11.925781 9.484375 -11.769531 9.484375 -11.53125 C 9.484375 -11.289062 9.425781 -10.96875 9.3125 -10.5625 C 9.09375 -9.820312 8.859375 -9.515625 8.609375 -9.640625 L 8.578125 -9.640625 L 7.703125 -9.984375 C 7.210938 -10.203125 6.617188 -10.3125 5.921875 -10.3125 C 5.234375 -10.3125 4.789062 -10.023438 4.59375 -9.453125 C 4.40625 -8.890625 4.3125 -7.796875 4.3125 -6.171875 C 4.3125 -4.546875 4.429688 -3.453125 4.671875 -2.890625 C 4.921875 -2.335938 5.390625 -2.0625 6.078125 -2.0625 C 7.054688 -2.0625 7.820312 -2.117188 8.375 -2.234375 C 8.925781 -2.347656 9.210938 -2.40625 9.234375 -2.40625 C 9.347656 -2.4375 9.441406 -2.367188 9.515625 -2.203125 C 9.597656 -2.035156 9.640625 -1.640625 9.640625 -1.015625 C 9.640625 -0.398438 9.503906 -0.0625 9.234375 0 C 8.191406 0.269531 7.171875 0.40625 6.171875 0.40625 C 4.148438 0.40625 2.765625 -0.0703125 2.015625 -1.03125 C 1.273438 -2 0.90625 -3.75 0.90625 -6.28125 C 0.90625 -8.101562 1.066406 -9.476562 1.390625 -10.40625 C 1.710938 -11.332031 2.234375 -11.96875 2.953125 -12.3125 C 3.679688 -12.664062 4.726562 -12.84375 6.09375 -12.84375 C 7.46875 -12.84375 8.53125 -12.5625 9.28125 -12 Z M 9.3125 -12 "/></g></g></g><g fill="#ffffff" fill-opacity="1"><g transform="translate(77.805551, 29.219637)"><g><path d="M 1.203125 -1.828125 C 0.847656 -2.265625 0.671875 -2.59375 0.671875 -2.8125 C 0.671875 -3.039062 0.867188 -3.351562 1.265625 -3.75 C 1.660156 -4.144531 1.921875 -4.359375 2.046875 -4.390625 C 2.171875 -4.421875 2.289062 -4.4375 2.40625 -4.4375 C 2.519531 -4.4375 2.710938 -4.363281 2.984375 -4.21875 C 4.222656 -3.25 5.3125 -2.765625 6.25 -2.765625 C 7.1875 -2.765625 7.796875 -2.976562 8.078125 -3.40625 C 8.359375 -3.84375 8.5 -4.410156 8.5 -5.109375 C 8.5 -5.816406 8.25 -6.390625 7.75 -6.828125 C 7.25 -7.265625 6.425781 -7.789062 5.28125 -8.40625 C 4.132812 -9.019531 3.132812 -9.820312 2.28125 -10.8125 C 1.425781 -11.800781 1 -12.820312 1 -13.875 C 1 -15.75 1.488281 -17.113281 2.46875 -17.96875 C 3.445312 -18.832031 4.882812 -19.265625 6.78125 -19.265625 C 7.925781 -19.265625 9.050781 -18.988281 10.15625 -18.4375 C 10.75 -18.207031 11.023438 -17.96875 10.984375 -17.71875 C 10.972656 -17.613281 10.957031 -17.460938 10.9375 -17.265625 C 10.625 -16.359375 10.382812 -15.835938 10.21875 -15.703125 C 10.164062 -15.671875 10.050781 -15.65625 9.875 -15.65625 C 9.695312 -15.65625 9.234375 -15.789062 8.484375 -16.0625 C 7.734375 -16.34375 7.09375 -16.484375 6.5625 -16.484375 C 6.03125 -16.484375 5.585938 -16.296875 5.234375 -15.921875 C 4.890625 -15.554688 4.71875 -15.039062 4.71875 -14.375 C 4.71875 -13.707031 5.019531 -13.101562 5.625 -12.5625 C 6.226562 -12.019531 7.15625 -11.453125 8.40625 -10.859375 C 9.726562 -10.179688 10.71875 -9.472656 11.375 -8.734375 C 12.039062 -7.992188 12.375 -7.003906 12.375 -5.765625 C 12.375 -1.648438 10.632812 0.40625 7.15625 0.40625 C 4.5625 0.40625 2.578125 -0.335938 1.203125 -1.828125 Z M 1.203125 -1.828125 "/></g></g></g><g fill="#ffffff" fill-opacity="1"><g transform="translate(91.458092, 29.219637)"><g><path d="M 0.921875 -6.28125 C 0.921875 -8.101562 1.078125 -9.476562 1.390625 -10.40625 C 1.710938 -11.34375 2.21875 -11.984375 2.90625 -12.328125 C 3.59375 -12.671875 4.601562 -12.84375 5.9375 -12.84375 C 7.28125 -12.84375 8.296875 -12.671875 8.984375 -12.328125 C 9.671875 -11.984375 10.171875 -11.34375 10.484375 -10.40625 C 10.804688 -9.476562 10.96875 -8.101562 10.96875 -6.28125 C 10.96875 -3.769531 10.609375 -2.023438 9.890625 -1.046875 C 9.171875 -0.078125 7.859375 0.40625 5.953125 0.40625 C 4.046875 0.40625 2.726562 -0.078125 2 -1.046875 C 1.28125 -2.023438 0.921875 -3.769531 0.921875 -6.28125 Z M 4.34375 -6.28125 C 4.34375 -3.46875 4.609375 -2.0625 5.140625 -2.0625 C 5.878906 -2.0625 6.425781 -2.175781 6.78125 -2.40625 C 6.957031 -2.539062 7.082031 -2.785156 7.15625 -3.140625 C 7.289062 -3.835938 7.359375 -4.882812 7.359375 -6.28125 C 7.359375 -9.050781 7.085938 -10.4375 6.546875 -10.4375 C 5.546875 -10.4375 4.925781 -10.207031 4.6875 -9.75 C 4.457031 -9.289062 4.34375 -8.132812 4.34375 -6.28125 Z M 4.34375 -6.28125 "/></g></g></g><g fill="#ffffff" fill-opacity="1"><g transform="translate(103.906012, 29.219637)"><g><path d="M 4.515625 0 C 4.515625 0.101562 4.5 0.171875 4.46875 0.203125 C 4.394531 0.335938 4.082031 0.40625 3.53125 0.40625 C 2.976562 0.40625 2.4375 0.363281 1.90625 0.28125 C 1.382812 0.195312 1.125 0.101562 1.125 0 L 1.125 -18.875 C 1.125 -19.132812 1.414062 -19.265625 2 -19.265625 C 2.59375 -19.265625 3.082031 -19.226562 3.46875 -19.15625 C 3.851562 -19.082031 4.050781 -18.988281 4.0625 -18.875 L 4.515625 -10.8125 Z M 4.515625 0 "/></g></g></g><g fill="#ffffff" fill-opacity="1"><g transform="translate(110.029636, 29.219637)"><g><path d="M 4.640625 0.40625 C 3.398438 0.40625 2.488281 0.0195312 1.90625 -0.75 C 1.332031 -1.519531 1.046875 -2.875 1.046875 -4.8125 L 1.046875 -12.453125 C 1.046875 -12.710938 1.351562 -12.84375 1.96875 -12.84375 C 2.582031 -12.84375 3.179688 -12.800781 3.765625 -12.71875 C 4.347656 -12.632812 4.640625 -12.546875 4.640625 -12.453125 L 4.671875 -4.8125 C 4.671875 -2.9375 4.800781 -2 5.0625 -2 C 5.664062 -2 6.472656 -2.300781 7.484375 -2.90625 L 7.484375 -12.453125 C 7.484375 -12.710938 7.785156 -12.84375 8.390625 -12.84375 C 9.003906 -12.84375 9.609375 -12.800781 10.203125 -12.71875 C 10.796875 -12.632812 11.09375 -12.546875 11.09375 -12.453125 L 11.09375 0 C 11.09375 0.101562 11.078125 0.171875 11.046875 0.203125 C 10.972656 0.335938 10.539062 0.40625 9.75 0.40625 C 8.957031 0.40625 8.46875 0.269531 8.28125 0 L 7.75 -0.78125 C 6.582031 0.0078125 5.546875 0.40625 4.640625 0.40625 Z M 4.640625 0.40625 "/></g></g></g><g fill="#ffffff" fill-opacity="1"><g transform="translate(122.803804, 29.219637)"><g><path d="M 2.328125 -10.4375 L 0.328125 -10.4375 C 0.128906 -10.4375 0.0195312 -10.484375 0 -10.578125 C -0.03125 -10.671875 -0.046875 -10.773438 -0.046875 -10.890625 C -0.046875 -11.609375 0.078125 -11.992188 0.328125 -12.046875 L 2.328125 -12.453125 L 3.734375 -15.28125 C 3.941406 -15.53125 4.328125 -15.65625 4.890625 -15.65625 C 5.046875 -15.65625 5.1875 -15.351562 5.3125 -14.75 C 5.445312 -14.15625 5.59375 -13.390625 5.75 -12.453125 L 8.15625 -12.453125 C 8.425781 -12.453125 8.5625 -12.113281 8.5625 -11.4375 C 8.5625 -10.769531 8.425781 -10.4375 8.15625 -10.4375 L 5.71875 -10.4375 L 5.71875 -2.453125 L 6.125 0.375 L 6.125 0.40625 C 6.132812 0.5 6.132812 0.566406 6.125 0.609375 C 6.039062 0.734375 5.625 0.796875 4.875 0.796875 C 4.113281 0.796875 3.660156 0.644531 3.515625 0.34375 L 2.328125 -2.03125 Z M 2.328125 -10.4375 "/></g></g></g><g fill="#ffffff" fill-opacity="1"><g transform="translate(131.813514, 29.219637)"><g><path d="M 1.171875 0 L 1.171875 -12.453125 C 1.171875 -12.710938 1.472656 -12.84375 2.078125 -12.84375 C 2.679688 -12.84375 3.25 -12.800781 3.78125 -12.71875 C 4.320312 -12.632812 4.59375 -12.546875 4.59375 -12.453125 L 4.59375 0 C 4.59375 0.101562 4.582031 0.171875 4.5625 0.203125 C 4.476562 0.335938 4.160156 0.40625 3.609375 0.40625 C 3.054688 0.40625 2.507812 0.363281 1.96875 0.28125 C 1.4375 0.195312 1.171875 0.101562 1.171875 0 Z M 2.734375 -15.65625 C 1.523438 -15.65625 0.921875 -16.253906 0.921875 -17.453125 C 0.921875 -18.660156 1.523438 -19.265625 2.734375 -19.265625 C 3.941406 -19.265625 4.546875 -18.660156 4.546875 -17.453125 C 4.546875 -16.253906 3.941406 -15.65625 2.734375 -15.65625 Z M 2.734375 -15.65625 "/></g></g></g><g fill="#ffffff" fill-opacity="1"><g transform="translate(138.062612, 29.219637)"><g><path d="M 0.921875 -6.28125 C 0.921875 -8.101562 1.078125 -9.476562 1.390625 -10.40625 C 1.710938 -11.34375 2.21875 -11.984375 2.90625 -12.328125 C 3.59375 -12.671875 4.601562 -12.84375 5.9375 -12.84375 C 7.28125 -12.84375 8.296875 -12.671875 8.984375 -12.328125 C 9.671875 -11.984375 10.171875 -11.34375 10.484375 -10.40625 C 10.804688 -9.476562 10.96875 -8.101562 10.96875 -6.28125 C 10.96875 -3.769531 10.609375 -2.023438 9.890625 -1.046875 C 9.171875 -0.078125 7.859375 0.40625 5.953125 0.40625 C 4.046875 0.40625 2.726562 -0.078125 2 -1.046875 C 1.28125 -2.023438 0.921875 -3.769531 0.921875 -6.28125 Z M 4.34375 -6.28125 C 4.34375 -3.46875 4.609375 -2.0625 5.140625 -2.0625 C 5.878906 -2.0625 6.425781 -2.175781 6.78125 -2.40625 C 6.957031 -2.539062 7.082031 -2.785156 7.15625 -3.140625 C 7.289062 -3.835938 7.359375 -4.882812 7.359375 -6.28125 C 7.359375 -9.050781 7.085938 -10.4375 6.546875 -10.4375 C 5.546875 -10.4375 4.925781 -10.207031 4.6875 -9.75 C 4.457031 -9.289062 4.34375 -8.132812 4.34375 -6.28125 Z M 4.34375 -6.28125 "/></g></g></g><g fill="#ffffff" fill-opacity="1"><g transform="translate(150.510526, 29.219637)"><g><path d="M 7.578125 -12.84375 C 8.816406 -12.84375 9.722656 -12.457031 10.296875 -11.6875 C 10.878906 -10.925781 11.171875 -9.570312 11.171875 -7.625 L 11.171875 0 C 11.171875 0.101562 11.160156 0.171875 11.140625 0.203125 C 11.054688 0.335938 10.734375 0.40625 10.171875 0.40625 C 9.609375 0.40625 9.035156 0.363281 8.453125 0.28125 C 7.867188 0.195312 7.578125 0.101562 7.578125 0 L 7.546875 -7.625 C 7.546875 -9.5 7.414062 -10.4375 7.15625 -10.4375 C 6.550781 -10.4375 5.75 -10.132812 4.75 -9.53125 L 4.75 0 C 4.75 0.101562 4.738281 0.171875 4.71875 0.203125 C 4.632812 0.335938 4.3125 0.40625 3.75 0.40625 C 3.1875 0.40625 2.609375 0.363281 2.015625 0.28125 C 1.421875 0.195312 1.125 0.101562 1.125 0 L 1.125 -12.453125 C 1.125 -12.710938 1.460938 -12.84375 2.140625 -12.84375 C 3.191406 -12.84375 3.789062 -12.710938 3.9375 -12.453125 C 3.9375 -12.410156 3.945312 -12.390625 3.96875 -12.390625 L 4.4375 -11.4375 C 5.84375 -12.375 6.890625 -12.84375 7.578125 -12.84375 Z M 7.578125 -12.84375 "/></g></g></g><g fill="#ffffff" fill-opacity="1"><g transform="translate(163.309785, 29.219637)"><g><path d="M 8.109375 -9.484375 L 7.953125 -9.53125 L 7 -10.015625 C 6.28125 -10.296875 5.660156 -10.4375 5.140625 -10.4375 C 4.390625 -10.40625 4.015625 -10.046875 4.015625 -9.359375 C 4.015625 -9.085938 4.160156 -8.867188 4.453125 -8.703125 C 4.742188 -8.535156 4.984375 -8.40625 5.171875 -8.3125 C 5.359375 -8.226562 5.625 -8.097656 5.96875 -7.921875 C 7.226562 -7.390625 8.160156 -6.796875 8.765625 -6.140625 C 9.378906 -5.492188 9.6875 -4.851562 9.6875 -4.21875 C 9.6875 -2.832031 9.316406 -1.710938 8.578125 -0.859375 C 7.847656 -0.015625 6.847656 0.40625 5.578125 0.40625 C 4.316406 0.40625 3.328125 0.238281 2.609375 -0.09375 C 1.890625 -0.4375 1.285156 -0.914062 0.796875 -1.53125 C 0.734375 -1.5625 0.703125 -1.609375 0.703125 -1.671875 C 0.703125 -1.742188 0.710938 -1.828125 0.734375 -1.921875 C 0.765625 -2.023438 0.960938 -2.296875 1.328125 -2.734375 C 1.691406 -3.179688 1.984375 -3.40625 2.203125 -3.40625 C 2.273438 -3.40625 2.34375 -3.375 2.40625 -3.3125 C 3.289062 -2.613281 4.15625 -2.265625 5 -2.265625 C 5.46875 -2.265625 5.816406 -2.394531 6.046875 -2.65625 C 6.285156 -2.925781 6.40625 -3.21875 6.40625 -3.53125 C 6.40625 -3.851562 6.269531 -4.113281 6 -4.3125 C 5.726562 -4.519531 5.394531 -4.71875 5 -4.90625 C 4.613281 -5.09375 4.398438 -5.195312 4.359375 -5.21875 C 4.328125 -5.238281 4.28125 -5.265625 4.21875 -5.296875 C 4.164062 -5.328125 4.113281 -5.351562 4.0625 -5.375 C 3.207031 -5.789062 2.484375 -6.3125 1.890625 -6.9375 C 1.296875 -7.5625 1 -8.257812 1 -9.03125 C 1 -10.375 1.347656 -11.34375 2.046875 -11.9375 C 2.742188 -12.539062 3.84375 -12.84375 5.34375 -12.84375 C 5.914062 -12.84375 6.457031 -12.773438 6.96875 -12.640625 C 7.675781 -12.460938 8.179688 -12.25 8.484375 -12 L 8.5 -12 C 8.632812 -11.914062 8.710938 -11.8125 8.734375 -11.6875 C 8.765625 -11.570312 8.753906 -11.320312 8.703125 -10.9375 C 8.535156 -9.96875 8.335938 -9.484375 8.109375 -9.484375 Z M 8.109375 -9.484375 "/></g></g></g><g clip-path="url(#35ec56c003)"><path fill="#f2611d" d="M 40.417969 1.222656 L 6.574219 1.222656 C 4.765625 1.222656 3.300781 2.691406 3.300781 4.5 C 3.300781 5.824219 4.09375 6.96875 5.234375 7.480469 L 18.925781 38.523438 C 18.992188 38.679688 19.140625 38.777344 19.3125 38.777344 L 25.011719 38.777344 C 25.152344 38.777344 25.289062 38.703125 25.363281 38.585938 C 25.445312 38.464844 25.453125 38.3125 25.398438 38.183594 L 23.609375 34.128906 L 30.285156 34.128906 C 30.515625 34.128906 30.707031 33.9375 30.707031 33.703125 C 30.707031 33.46875 30.519531 33.277344 30.285156 33.277344 L 23.234375 33.277344 L 20.703125 27.535156 L 27.378906 27.535156 C 27.609375 27.535156 27.800781 27.347656 27.800781 27.113281 C 27.800781 26.878906 27.613281 26.6875 27.378906 26.6875 L 20.332031 26.6875 L 17.800781 20.945312 L 24.472656 20.945312 C 24.707031 20.945312 24.898438 20.757812 24.898438 20.523438 C 24.898438 20.289062 24.710938 20.097656 24.472656 20.097656 L 17.425781 20.097656 L 14.894531 14.355469 L 21.566406 14.355469 C 21.800781 14.355469 21.992188 14.164062 21.992188 13.933594 C 21.992188 13.699219 21.804688 13.507812 21.566406 13.507812 L 14.519531 13.507812 L 11.988281 7.765625 L 40.417969 7.765625 C 40.652344 7.765625 40.84375 7.574219 40.84375 7.339844 L 40.84375 1.648438 C 40.84375 1.414062 40.652344 1.222656 40.417969 1.222656 Z M 16.757812 20.6875 C 16.757812 20.6875 16.757812 20.691406 16.761719 20.691406 L 24.367188 37.925781 L 19.589844 37.925781 L 6.28125 7.757812 C 6.378906 7.765625 6.476562 7.773438 6.574219 7.773438 L 11.0625 7.773438 Z M 39.996094 6.925781 L 6.574219 6.925781 C 5.238281 6.925781 4.148438 5.835938 4.148438 4.5 C 4.148438 3.160156 5.238281 2.074219 6.574219 2.074219 L 39.996094 2.074219 Z M 39.996094 6.925781 " fill-opacity="1" fill-rule="nonzero"/></g><path fill="#f2611d" d="M 7.800781 5.304688 C 8.25 5.304688 8.613281 4.941406 8.613281 4.496094 C 8.613281 4.046875 8.25 3.683594 7.800781 3.683594 C 7.355469 3.683594 6.992188 4.046875 6.992188 4.496094 C 6.992188 4.945312 7.355469 5.304688 7.800781 5.304688 Z M 7.800781 5.304688 " fill-opacity="1" fill-rule="nonzero"/></svg>